HIERARCHY
ROOT Hips
{
    OFFSET 0.000000 0.000000 0.000000
    CHANNELS 6 Xposition Yposition Zposition Zrotation Xrotation Yrotation
    JOINT Spine
    {
        OFFSET -0.000000 7.750029 0.000000
        CHANNELS 3 Zrotation Xrotation Yrotation
        JOINT Spine1
        {
            OFFSET -0.000000 19.767460 0.000000
            CHANNELS 3 Zrotation Xrotation Yrotation
            JOINT Neck
            {
                OFFSET -0.000000 19.686279 1.789662
                CHANNELS 3 Zrotation Xrotation Yrotation
                JOINT Head
                {
                    OFFSET -0.000000 13.231757 -1.890251
                    CHANNELS 3 Zrotation Xrotation Yrotation
                    End Site
                    {
                        OFFSET -0.000000 23.628138 0.000000
                    }
                }
            }
            JOINT LeftShoulder
            {
                OFFSET 3.736819 16.910755 -0.280982
                CHANNELS 3 Zrotation Xrotation Yrotation
                JOINT LeftArm
                {
                    OFFSET 13.626117 0.000000 0.000000
                    CHANNELS 3 Zrotation Xrotation Yrotation
                    JOINT LeftForeArm
                    {
                        OFFSET 31.364786 0.000000 0.000000
                        CHANNELS 3 Zrotation Xrotation Yrotation
                        JOINT LeftHand
                        {
                            OFFSET 23.389509 0.000000 0.000000
                            CHANNELS 3 Zrotation Xrotation Yrotation
                            End Site
                            {
                                OFFSET 14.176883 0.000000 0.000000
                            }
                        }
                    }
                }
            }
            JOINT RightShoulder
            {
                OFFSET -3.821718 16.910755 -0.280982
                CHANNELS 3 Zrotation Xrotation Yrotation
                JOINT RightArm
                {
                    OFFSET -13.626117 0.000000 0.000000
                    CHANNELS 3 Zrotation Xrotation Yrotation
                    JOINT RightForeArm
                    {
                        OFFSET -31.364786 0.000000 0.000000
                        CHANNELS 3 Zrotation Xrotation Yrotation
                        JOINT RightHand
                        {
                            OFFSET -23.389509 0.000000 0.000000
                            CHANNELS 3 Zrotation Xrotation Yrotation
                            End Site
                            {
                                OFFSET -14.176883 0.000000 0.000000
                            }
                        }
                    }
                }
            }
        }
    }
    JOINT LeftUpLeg
    {
        OFFSET 9.451255 0.000000 0.000000
        CHANNELS 3 Zrotation Xrotation Yrotation
        JOINT LeftLeg
        {
            OFFSET -0.000000 -41.898624 0.000000
            CHANNELS 3 Zrotation Xrotation Yrotation
            JOINT LeftFoot
            {
                OFFSET -0.000000 -38.481331 0.000000
                CHANNELS 3 Zrotation Xrotation Yrotation
                JOINT LeftToeBase
                {
                    OFFSET -0.000000 -6.143315 14.176883
                    CHANNELS 3 Zrotation Xrotation Yrotation
                    End Site
                    {
                        OFFSET -0.000000 0.000000 3.780502
                    }
                }
            }
        }
    }
    JOINT RightUpLeg
    {
        OFFSET -9.451255 0.000000 0.000000
        CHANNELS 3 Zrotation Xrotation Yrotation
        JOINT RightLeg
        {
            OFFSET -0.000000 -41.898624 0.000000
            CHANNELS 3 Zrotation Xrotation Yrotation
            JOINT RightFoot
            {
                OFFSET -0.000000 -38.481331 0.000000
                CHANNELS 3 Zrotation Xrotation Yrotation
                JOINT RightToeBase
                {
                    OFFSET -0.000000 -6.143315 14.176883
                    CHANNELS 3 Zrotation Xrotation Yrotation
                    End Site
                    {
                        OFFSET -0.000000 0.000000 3.780502
                    }
                }
            }
        }
    }
}
MOTION
Frames:    4
Frame Time:    0.010000
-17.081499    88.451447    -47.468834    0.401566    -1.475174    173.411362    -3.204439    -2.905111    -2.488703    3.878411    9.811928    -2.740436    -14.403340    65.142067    18.941055    11.388525    -40.393013    16.993055    15.431997    -14.775493    -14.299007    -36.780197    41.700367    -60.342964    -7.032974    -37.498623    -105.837250    48.013287    -32.416008    33.683083    -18.112225    -6.260759    5.042123    23.293062    27.924828    39.132191    12.994119    -22.638412    130.342819    -43.352180    -31.629267    -44.241371    8.288447    -23.942087    9.101374    -4.893365    30.699631    -8.526837    2.379841    -5.349834    14.953365    0.000000    0.000000    0.000000    -4.962871    2.092431    14.467981    8.905268    64.866211    8.275035    7.696468    2.594514    -17.108162    0.000000    0.000000    0.000000    
-17.337095    87.670097    -49.907585    0.313911    -1.623798    172.858032    -3.448936    -2.999135    -2.563198    3.685840    9.418855    -2.776608    -15.056934    65.105164    19.410860    11.883820    -40.377365    17.353504    15.568911    -14.485805    -13.926088    -37.345783    41.505531    -60.158585    -6.892526    -37.148705    -106.079567    47.496208    -32.165436    33.477776    -18.478615    -6.301888    4.760069    23.374207    27.815535    39.530369    13.062662    -22.806423    130.299530    -42.588081    -32.135094    -44.422241    7.567084    -23.548685    7.743998    -4.988314    33.156055    -6.499511    3.962974    -9.809843    16.945063    0.000000    0.000000    0.000000    -5.149543    -0.581440    13.403452    8.457020    69.566147    9.333218    6.160525    -0.472178    -17.268152    0.000000    0.000000    0.000000    
-17.611214    86.880714    -52.260674    0.056846    -1.941188    172.206711    -3.899971    -3.193693    -2.653653    3.377731    8.847302    -2.806250    -15.599422    65.099388    19.956181    12.803014    -40.207642    18.037560    15.924589    -14.216943    -13.774381    -37.933559    41.536873    -59.788231    -5.207066    -37.263767    -105.409721    45.730183    -30.890490    33.347637    -18.355301    -6.138936    4.955685    23.283543    27.350569    39.424023    13.152285    -22.857410    130.219406    -41.692085    -32.827549    -44.022457    7.092911    -23.767006    6.754453    -5.502357    35.562035    -3.056049    5.164657    -13.939753    14.440332    0.000000    0.000000    0.000000    -5.334805    -3.658277    13.418450    10.387417    74.058289    6.805440    4.038312    -3.223632    -16.215755    0.000000    0.000000    0.000000    
-17.809975    86.103485    -54.443146    -0.245536    -2.469355    171.536591    -4.392644    -3.221226    -2.785522    2.914855    7.904871    -2.863371    -15.095789    64.786423    19.963348    12.989893    -39.406715    18.403023    16.663128    -13.455750    -13.276562    -38.654892    40.536114    -59.827953    -6.486771    -35.683823    -106.259933    47.042614    -30.213404    33.707359    -18.067627    -6.013387    5.680640    23.540697    27.054838    38.595078    13.259286    -22.877558    130.626297    -41.289650    -33.501022    -43.897499    6.853428    -24.851610    5.102998    -7.361066    38.896088    2.363264    5.155622    -16.974472    12.515722    0.000000    0.000000    0.000000    -5.384589    -7.332464    12.917944    12.190319    78.736038    6.109117    1.529720    -6.299492    -16.974516    0.000000    0.000000    0.000000    
